<?xml version="1.0" encoding="UTF-8" standalone="no"?>
<svg width="1242" height="2436" viewBox="0 0 1242 2436" version="1.1" xmlns="http://www.w3.org/2000/svg">
    <rect width="1242" height="2436" fill="#4CAF50" />
    <g transform="translate(296, 943) scale(0.8)">
        <path fill="#FFFFFF" d="M800 480c0-35.2-28.8-64-64-64h-32v-64c0-35.2-28.8-64-64-64h-64v-64c0-35.2-28.8-64-64-64h-128c-35.2 0-64 28.8-64 64v64h-64c-35.2 0-64 28.8-64 64v64h-32c-35.2 0-64 28.8-64 64v192c0 35.2 28.8 64 64 64v128c0 35.2 28.8 64 64 64h448c35.2 0 64-28.8 64-64v-128c35.2 0 64-28.8 64-64v-192zM384 224c0-17.6 14.4-32 32-32h128c17.6 0 32 14.4 32 32v64h-192v-64zM256 352c0-17.6 14.4-32 32-32h384c17.6 0 32 14.4 32 32v64h-448v-64zM640 864c0 17.6-14.4 32-32 32h-256c-17.6 0-32-14.4-32-32v-128h320v128zM704 672c0 17.6-14.4 32-32 32h-384c-17.6 0-32-14.4-32-32v-128h448v128z"/>
    </g>
    <text x="621" y="1650" text-anchor="middle" font-family="Arial" font-size="64" font-weight="bold" fill="#FFFFFF">AI Meal Planner</text>
</svg>